<svg version="1.1" id="Layer_1" xmlns="http://www.w3.org/2000/svg" xmlns:xlink="http://www.w3.org/1999/xlink" x="0px" y="0px"
	 viewBox="0 0 960 560" style="enable-background:new 0 0 960 560;" xml:space="preserve">
<style type="text/css">
	.st0
	{
					stroke-dashoffset: 0;
					stroke-dasharray: 2000;
					-webkit-animation: dash 30s linear forwards;
					-o-animation: dash 30s linear forwards;
					-moz-animation: dash 30s linear forwards;
					animation: dash 30s linear forwards;
	}
	
	@-webkit-keyframes dash
			{
				from{
					stroke-dashoffset: 2000;	
				} to {
					stroke-dashoffset: 0;
				}
			}
		
			@-o-keyframes dash
				{
					from{
						stroke-dashoffset: 2000;	
					} to {
						stroke-dashoffset: 0;
					}
				}
		
			@-moz-keyframes dash
				{
					from{
						stroke-dashoffset: 2000;	
					} to {
						stroke-dashoffset: 0;
					}
				}
		
			@keyframes dash
				{
					from{
						stroke-dashoffset: 2000;	
					} to {
						stroke-dashoffset: 0;
					}
				}
				
	.st0{fill:#FFFFFF;stroke:#000000;stroke-miterlimit:10;}
</style>
<polygon class="st0" points="328.5,77.293 810.591,32.78 784.485,556.561 328.5,447.415 "/>
<polygon class="st0" points="341.5,91.927 756.726,58.39 737.223,531.561 341.5,440.707 "/>
<polygon class="st0" points="353.049,99.244 749.39,69.366 756.726,58.39 341.5,91.927 "/>
<polygon class="st0" points="341.5,440.707 353.049,435.22 728.659,518.146 737.223,531.561 "/>
<polygon class="st0" points="353.5,435 353.5,99 749.39,69.366 728.659,518.146 "/>
<polygon class="st0" points="367.5,113 367.5,426 729.878,502.293 748.171,88.268 "/>
<polygon class="st0" points="367.5,426 375.61,422.415 730.488,496.805 729.878,502.293 "/>
<polygon class="st0" points="375.5,422 375.5,112 748.171,88.268 730.488,496.805 "/>
<polygon class="st0" points="397.561,133.39 395.833,407.167 707,467 721,118 "/>
<polygon class="st0" points="395.833,407.137 404.5,404.5 404.5,133 397.561,133.39 "/>
<polygon class="st0" points="404.5,404.5 707.186,462.354 707,467 395.833,407.137 "/>
<polygon class="st0" points="544.667,277.917 713.5,290 713.5,300 544.5,286.5 542.333,433.167 532.333,431.167 536.333,285.167 
	400.5,275.667 400.5,268 536.5,278 538.833,126.5 549.113,126.179 "/>
<polygon class="st0" points="553.833,126.5 549.113,278.395 544.667,278.157 549.113,126.5 "/>
<polygon class="st0" points="542.333,433.167 545.923,431.531 549.113,286.868 544.5,286.5 "/>
</svg>
