
<svg version="1.1" id="Layer_1" xmlns="http://www.w3.org/2000/svg" xmlns:xlink="http://www.w3.org/1999/xlink" x="0px" y="0px"
	 viewBox="0 0 960 560" style="enable-background:new 0 0 960 560;" xml:space="preserve">
<style type="text/css">

.st0
	{
					stroke-dashoffset: 0;
					stroke-dasharray: 2000;
					-webkit-animation: dash 20s linear forwards;
					-o-animation: dash 20s linear forwards;
					-moz-animation: dash 20s linear forwards;
					animation: dash 20s linear forwards;
	}
	
	@-webkit-keyframes dash
			{
				from{
					stroke-dashoffset: 2000;	
				} to {
					stroke-dashoffset: 0;
				}
			}
		
			@-o-keyframes dash
				{
					from{
						stroke-dashoffset: 2000;	
					} to {
						stroke-dashoffset: 0;
					}
				}
		
			@-moz-keyframes dash
				{
					from{
						stroke-dashoffset: 2000;	
					} to {
						stroke-dashoffset: 0;
					}
				}
		
			@keyframes dash
				{
					from{
						stroke-dashoffset: 2000;	
					} to {
						stroke-dashoffset: 0;
					}
				}
				
	.st0{fill:#FFFFFF;stroke:#000000;stroke-miterlimit:20;}
	.st0{fill:#FFFFFF;stroke:#000000;stroke-width:0.5;stroke-miterlimit:10;}
</style>
<path class="st0" d="M533.769,48.846c112.981-19.231,78.365,25.962,134.135-4.808s90.865-21.635,90.865-21.635"/>
<path class="st0" d="M447.769,383.846c112.981-19.231,78.365,25.962,134.135-4.808s90.865-21.635,90.865-21.635"/>
<path class="st0" d="M672.769,181.404c0,0-35.096-9.135-90.865,21.635s-21.154-14.423-134.135,4.808"/>
<path class="st0" d="M632.808,279.288c68.75-12.019,40.385-25.481,75-25.481c34.615,0,11.058,25.481,59.135,8.173"/>
<path class="st0" d="M600.808,478.288c68.75-12.019,40.385-25.481,75-25.481c34.615,0,11.058,25.481,59.135,8.173"/>
<path class="st0" d="M551.808,127.288c68.75-12.019,40.385-25.481,75-25.481c34.615,0,11.058,25.481,59.135,8.173"/>
<path class="st0" d="M916.782,62.667c5.468-15.652,2-58.667,2-58.667s-17,43.667-28.333,42.333
	c-11.333-1.333-8.333-21.045-8.333-21.045s-16.481,12.323-17.667,36.045c-0.667,13.333-17-9.333-12.667-14
	c4.333-4.667-17.667,13.333-20,47.667c0,0-23.667,12.333-10.667-22.667c0,0-36,14.333-23.333-18.667c0,0-31,18.667-4.667,58.333
	c0,0,9.333,22.667-14,13s-10.667-27.667-10.667-27.667s-14.667,31.333-29.333-4.667c0,0,15.667,52.667-6,26.667
	c0,0,5.667,47.248,46.667,46.791c41-0.457,24.667,13.876,24.667,13.876s-21.667,52.333,56,55.333c0,0-14.667-21.667,25-13.667
	c0,0-25.818-8.511-6-22.667c0,0-40,7-31-26.333c0,0,4-10.776,25,10.445s54-17.112,52.333-26.112c0,0-39.333,25.667-25-15.333
	c0,0-24.333,22.667-23.667-3.333s40,1.667,54.667-41.333c0,0-49.667,10.333-8.333-17c0,0,24-23.667,18.667-31.667
	C942.115,48.333,914.018,70.578,916.782,62.667z"/>
<path class="st0" d="M808.782,166.124c0,0,81.333-50.457,109.667-150.791"/>
<path class="st0" d="M823.448,149.136c0,0-5.667-28.469-9.667-34.469"/>
<path class="st0" d="M848.448,127.667c0,0-0.333-54,3.333-55.667"/>
<path class="st0" d="M875.115,94c0,0,7.667-39,5-39"/>
<path class="st0" d="M616,283.729"/>
<path class="st0" d="M889.782,94c0,0,26.333-21,28.667-19.5"/>
<path class="st0" d="M859.782,127.667c0,0,36.333-9.333,36-13"/>
<path class="st0" d="M830.448,158c0,0,21-9.667,39.667-1.667"/>
<path class="st0" d="M803.972,169.293c0,0-61.524,64.87-100.857-13.711c0,0,1.333-8.915-12.667,2.418s-3.333,8.124-3.333,8.124
	c8.667-1.209,24,15.543,24,15.543c37,45.333,95.056-3.626,95.056-3.626"/>
<path class="st0" d="M745.667,360.846c0,0-62.667-23-46.333,51.667c0,0,4.667,21.333,53.667,31c0,0,34.667-0.333,32.667,42.333
	c0,0,4.667-43,10-48c0,0,19.333-36.667,17.333-56.667S783.333,305.18,745.667,360.846z"/>
<path class="st0" d="M745.667,360.846c0,0,12,39,17.667,41c5.667,2,25.667,51.333,21,51.333"/>
<path class="st0" d="M769.333,417.846c0,0,0.033,7-3.984,15.333"/>
<path class="st0" d="M776,417.846c0,0,9.066,5,9.033,7.667"/>
<path class="st0" d="M751.333,386.846c0,0-4.667,32.333-9,31"/>
<path class="st0" d="M754.881,385.18c0,0,27.485,11,25.635,14"/>
<path class="st0" d="M742.333,370.18c0,0-22.667,27.667-24,26"/>
<path class="st0" d="M751.333,366.18c0,0,29.066,8.667,33.7,6"/>
<path class="st0" d="M747.416,358.331c0,0-22.083-24.818,3.917-42.818c0,0,6-3.667-1.667-9.667c-7.667-6-6.095-1.667-6.095-1.667
	c2.239,7.667-5.239,14.667-5.239,14.667c-15.333,18.667,5.239,41.323,5.239,41.323"/>
</svg>
